<svg width="333" height="89" viewBox="0 0 333 89" fill="none" xmlns="http://www.w3.org/2000/svg">
<path d="M109.561 3.67632C99.0982 1.88993 82.866 3.17386 82.866 17.1229C82.866 26.9745 84.6457 36.723 84.6457 46.389C84.6457 53.169 83.6389 60.586 86.4254 66.8555C92.3656 80.2212 107.752 81.9829 121.129 81.9829C136.071 81.9829 149.592 86.5364 163.842 80.2032C172.884 76.1845 183.747 65.9635 184.309 55.2875C184.833 45.316 186.787 27.063 176.399 21.8688C161.917 14.6277 146.709 8.41284 131.313 3.28084C118.908 -0.854289 109.329 1.89663 97.1035 1.89663" stroke="black" stroke-linecap="round" stroke-linejoin="round"/>
<path d="M212.784 12.5748C197.373 12.5748 193.207 18.7869 193.207 33.9312C193.207 47.9279 195.929 55.1304 203.885 65.0758C220.64 86.0197 251.407 97.068 274.678 78.0281C283.275 70.9937 285.751 67.779 285.751 56.1774C285.751 47.9912 287.412 27.5507 277.743 23.253C256.401 13.7677 230.802 6.73552 207.445 12.5748" stroke="black" stroke-linecap="round" stroke-linejoin="round"/>
<path d="M191.427 21.4733C187.275 21.4733 183.122 21.4733 178.97 21.4733" stroke="black" stroke-linecap="round" stroke-linejoin="round"/>
<path d="M77.5269 41.05C67.2413 42.7292 57.6352 42.8297 47.2721 42.8297C42.0018 42.8297 37.0852 39.2703 31.2548 39.2703C20.3163 39.2703 1 39.4419 1 53.5078" stroke="black" stroke-linecap="round" stroke-linejoin="round"/>
<path d="M278.633 35.7108C289.573 27.7543 326.012 24.2419 332.023 39.2702" stroke="black" stroke-linecap="round" stroke-linejoin="round"/>
<path d="M125.988 6.27148C115.406 8.33626 106.044 9.45129 96.0295 13.1602C91.9841 14.6586 89.4301 15.4342 86.3372 18.5271C81.1772 23.687 91.2611 22.0532 95.5489 22.4521C111.807 23.9644 128.747 26.4572 145.052 26.4572C151.194 26.4572 169.026 24.1482 163.475 26.7776C150.697 32.8306 133.502 36.3239 119.259 36.55C109.791 36.7003 96.0987 35.9475 87.0581 39.7541C79.7066 42.8494 90.7655 40.7888 94.2673 40.9556C105.343 41.483 116.156 42.769 126.949 44.8806C132.337 45.9348 138.451 45.201 143.93 45.201C149.405 45.201 153.979 47.9016 159.47 48.0847C164.475 48.2515 169.002 49.5265 174.129 49.5265C178.648 49.5265 182.752 50.807 175.33 50.9683C160.957 51.2808 146.601 53.852 132.236 53.852C122.379 53.852 113.86 56.8561 104.36 59.2989C102.239 59.8443 84.1347 65.3867 92.3448 65.3867C102.267 65.3867 113.451 64.0259 123.104 66.5081C131.426 68.6481 142.956 65.4146 150.499 68.5907C156.706 71.2043 160.67 69.6772 153.382 72.9162C146.817 75.8342 138.711 73.1609 131.755 75.4795" stroke="black" stroke-linecap="round" stroke-linejoin="round"/>
<path d="M193.754 19.248C202.565 21.1823 210.321 23.5735 219.386 23.5735C226.831 23.5735 233.599 27.6244 241.014 27.899C247.819 28.1511 254.346 30.7827 261.2 30.7827C263.979 30.7827 265.98 32.2245 268.729 32.2245C271.239 32.2245 277.381 30.0596 276.259 32.3047C275.159 34.5034 257.041 36.2722 254.471 36.4699C249.518 36.851 244.884 37.9919 239.892 37.9919C229.206 37.9919 218.532 42.3174 207.852 42.3174C204.295 42.3174 194.319 41.7861 197.278 43.7592C201.551 46.608 213.219 46.3933 218.585 46.6429C226.376 47.0053 234.221 50.2239 242.055 51.0485C246.597 51.5266 259.717 51.8021 263.042 54.573C266.287 57.2768 279.748 56.8627 264.404 58.2577C255.634 59.0549 247.209 61.1368 238.531 62.5832C234.842 63.1979 227.401 64.023 224.032 65.7071C223.234 66.1061 213.192 72.0383 213.459 72.2755C216.928 75.3592 234.02 72.5959 239.172 72.5959C249.735 72.5959 260.228 75.4796 270.171 75.4796" stroke="black" stroke-linecap="round" stroke-linejoin="round"/>
</svg>
