<svg width="232" height="85" viewBox="0 0 232 85" fill="none" xmlns="http://www.w3.org/2000/svg">
<path d="M115.998 27.9185C121.634 27.9185 123.116 31.091 124.826 38.639C125.619 42.1145 126.653 45.7932 127.856 49.673C138.646 84.4755 158.725 84.5159 176.455 84.5159C176.475 84.5159 178.358 84.5155 178.358 84.5155C186.535 84.5155 195.775 84.5155 204.152 79.0232C213.095 73.1588 218.949 62.5058 222.576 45.4958C223.278 42.204 223.715 39.0742 223.886 36.1105H223.886C224.239 30.2153 226.763 27.6266 228.903 26.4897C230.842 25.4598 232 23.3659 232 21.1476V10.6736C232 8.43236 230.487 6.48673 228.337 5.95844C220.247 3.97195 200.646 0.484131 173.917 0.484131C136.909 0.484131 134.949 5.82717 116 5.82717C97.0512 5.82717 95.0915 0.484131 58.0829 0.484131C31.354 0.484131 11.7527 3.9715 3.66306 5.95844C1.51298 6.48673 0 8.43282 0 10.6736V21.1462C0 23.3645 1.15864 25.4584 3.09756 26.4884C5.23767 27.6253 7.76113 30.2139 8.11456 36.1091H8.11411C8.28584 39.0728 8.7222 42.2026 9.42409 45.4944C13.0514 62.5039 18.9057 73.1579 27.8486 79.0219C36.2246 84.5141 45.4648 84.5141 53.6428 84.5141C53.6428 84.5141 55.525 84.5145 55.5459 84.5145C73.2748 84.5145 93.3542 84.4741 104.145 49.6717C105.347 45.7914 106.382 42.1136 107.174 38.6377C108.885 31.0901 110.366 27.9172 116.002 27.9172H115.999V27.9185H115.998Z" fill="#394049"/>
</svg>
