<svg width="229" height="189" viewBox="0 0 229 189" fill="none" xmlns="http://www.w3.org/2000/svg">
<path d="M150.103 59.3418H78.8984V65.2034H150.103V59.3418Z" fill="#E9D286"/>
<path d="M128.224 76.9671C127.604 76.4924 122.8 74.8136 114.5 74.8136C106.199 74.8136 101.395 76.4924 100.776 76.9671L95.8064 72.7796C99.0732 70.1355 107.549 68.952 114.5 68.952C121.451 68.952 129.926 70.1355 133.193 72.7796L128.221 76.9645L128.224 76.9671Z" fill="#E9D286"/>
<path opacity="0.1" d="M95.8063 72.7796C97.2224 71.6334 99.6179 70.7626 102.442 70.1429C103.76 71.8302 104.748 73.6493 105.347 75.5987C102.677 76.1037 101.11 76.711 100.775 76.9671L100.778 76.9649L95.8063 72.7796Z" fill="black"/>
<path opacity="0.1" d="M85.6874 59.3422C90.0501 60.9291 93.9748 62.8852 97.188 65.2037H78.8989V59.3422H85.6874Z" fill="black"/>
<path d="M99.1573 108.96L97.4984 108.66C94.3885 108.097 92.4201 105.56 93.1018 102.994L95.6181 93.5168C96.2992 90.9502 99.3733 89.3256 102.483 89.8882L104.142 90.1883C107.251 90.7505 109.22 93.2876 108.538 95.8538L106.022 105.331C105.34 107.898 102.267 109.523 99.1573 108.96Z" fill="#C2DCE0"/>
<path opacity="0.1" d="M93.1009 102.994L95.6172 93.5168C96.2988 90.9502 99.3724 89.3256 102.482 89.8882L104.141 90.1883C104.826 90.3127 105.452 90.5367 106.011 90.8317C105.269 96.5674 103.619 103.036 100.337 109.07C99.9471 109.066 99.5518 109.031 99.1559 108.959L97.497 108.659C94.3881 108.097 92.4197 105.561 93.1009 102.994Z" fill="black"/>
<path d="M129.842 108.96L131.501 108.66C134.611 108.097 136.579 105.56 135.898 102.994L133.382 93.5168C132.7 90.9502 129.626 89.3256 126.517 89.8882L124.858 90.1883C121.748 90.7505 119.78 93.2876 120.461 95.8538L122.978 105.331C123.659 107.898 126.733 109.523 129.842 108.96Z" fill="#C2DCE0"/>
<path opacity="0.1" d="M135.899 102.994L133.382 93.5168C132.701 90.9502 129.627 89.3256 126.518 89.8882L124.859 90.1883C124.173 90.3127 123.548 90.5367 122.989 90.8317C123.731 96.5674 125.38 103.036 128.663 109.07C129.052 109.066 129.448 109.031 129.844 108.959L131.503 108.659C134.611 108.097 136.58 105.561 135.899 102.994Z" fill="black"/>
<path d="M52.0759 58.3097C44.3123 58.3097 19.5513 58.8859 5.28176 69.0797C4.18954 69.8601 3.55084 70.9871 3.55084 72.1794V83.0971C3.55084 83.9978 3.89211 84.8675 4.47444 85.6297C12.0359 95.5212 11.4518 130.69 52.0759 130.69C94.2825 130.69 100.601 98.7763 100.601 82.715C100.601 66.6537 74.6391 58.3097 52.0759 58.3097Z" fill="#536BA5"/>
<path opacity="0.1" d="M100.486 80.9243C99.4816 97.7239 91.1919 125.133 52.0755 125.133C11.4518 125.133 12.0355 89.9642 4.47402 80.0727C3.89168 79.3112 3.55042 78.4407 3.55042 77.5404V83.0971C3.55042 83.9978 3.89168 84.8675 4.47402 85.6294C12.0355 95.5208 11.4513 130.69 52.0755 130.69C94.2821 130.69 100.601 98.7759 100.601 82.7146C100.601 82.1067 100.559 81.5105 100.486 80.9243Z" fill="black"/>
<path opacity="0.15" d="M52.0759 58.3097C44.3123 58.3097 19.5513 58.8859 5.28176 69.0797C4.18954 69.8601 3.55084 70.9871 3.55084 72.1794V83.0971C3.55084 83.9978 3.89211 84.8675 4.47444 85.6294C7.73321 89.8926 9.48157 98.8516 13.6657 107.667L71.1223 60.2466C64.9344 58.9605 58.373 58.3097 52.0759 58.3097Z" fill="white"/>
<path d="M52.0755 133.621C37.4553 133.621 26.0245 129.228 18.0986 120.566C11.4585 113.307 8.32181 104.351 5.80192 97.1547C4.31253 92.9003 3.0253 89.2259 1.4715 87.1934C0.508987 85.9343 0 84.5179 0 83.0971V72.1794C0 70.144 1.07791 68.206 2.95821 66.8634C8.96229 62.5744 23.3271 55.3787 52.0755 55.3787C77.3209 55.3787 104.151 64.959 104.151 82.7143C104.151 89.6224 102.996 102.894 95.2549 114.17C91.2004 120.075 85.8315 124.716 79.2942 127.963C71.7386 131.718 62.5808 133.621 52.0755 133.621ZM52.0755 61.2403C42.9365 61.2403 20.3098 62.22 7.60574 71.2953C7.28505 71.5238 7.10212 71.8464 7.10212 72.1794V83.0971C7.10212 83.4913 7.30652 83.8413 7.47827 84.0653C9.56923 86.801 10.9853 90.8446 12.6254 95.5268C14.9834 102.26 17.9183 110.639 23.7677 117.033C30.3702 124.251 39.6303 127.759 52.0764 127.759C69.1216 127.759 81.5704 122.215 89.0768 111.281C96.0143 101.175 97.0506 89.0458 97.0506 82.715C97.0498 69.2732 74.1833 61.2403 52.0755 61.2403Z" fill="#A27B5A"/>
<path d="M176.924 58.3097C184.687 58.3097 209.448 58.8859 223.718 69.0797C224.81 69.8601 225.449 70.9871 225.449 72.1794V83.0971C225.449 83.9978 225.107 84.8675 224.525 85.6297C216.964 95.5212 217.548 130.69 176.924 130.69C134.717 130.69 128.399 98.7763 128.399 82.715C128.399 66.6537 154.36 58.3097 176.924 58.3097Z" fill="#536BA5"/>
<path opacity="0.1" d="M133.193 72.7796C131.777 71.6334 129.382 70.7626 126.557 70.1429C125.239 71.8302 124.251 73.6493 123.653 75.5987C126.322 76.1037 127.889 76.711 128.224 76.9671L128.221 76.9649L133.193 72.7796Z" fill="black"/>
<path opacity="0.1" d="M143.313 59.3422C138.95 60.9291 135.025 62.8852 131.812 65.2037H150.101V59.3422H143.313Z" fill="black"/>
<path opacity="0.1" d="M128.513 80.9243C129.518 97.7239 137.807 125.133 176.924 125.133C217.547 125.133 216.964 89.9642 224.525 80.0727C225.107 79.3112 225.449 78.4407 225.449 77.5404V83.0971C225.449 83.9978 225.107 84.8675 224.525 85.6294C216.964 95.5208 217.548 130.69 176.924 130.69C134.717 130.69 128.399 98.7759 128.399 82.7146C128.399 82.1067 128.44 81.5105 128.513 80.9243Z" fill="black"/>
<path opacity="0.15" d="M223.718 69.0797C221.708 67.6445 219.486 66.4057 217.138 65.3263L147.266 122.993C154.322 127.657 163.917 130.69 176.924 130.69C217.548 130.69 216.964 95.5212 224.526 85.6298C225.108 84.8682 225.449 83.9978 225.449 83.0975V72.1798C225.449 70.9875 224.81 69.8601 223.718 69.0797Z" fill="white"/>
<path d="M176.924 133.621C166.419 133.621 157.261 131.718 149.705 127.963C143.168 124.716 137.798 120.075 133.744 114.17C126.003 102.895 124.848 89.6224 124.848 82.7143C124.848 74.3067 131.128 66.9158 142.531 61.9022C151.96 57.7567 164.496 55.3787 176.925 55.3787C205.673 55.3787 220.038 62.5744 226.042 66.8634C227.922 68.206 229 70.144 229 72.1794V83.0971C229 84.5179 228.491 85.9343 227.529 87.1938C225.975 89.2263 224.687 92.9007 223.198 97.1547C220.678 104.351 217.541 113.307 210.901 120.566C202.975 129.228 191.544 133.621 176.924 133.621ZM176.924 61.2403C154.817 61.2403 131.95 69.2728 131.95 82.7143C131.95 89.045 132.986 101.174 139.924 111.281C147.43 122.215 159.879 127.759 176.924 127.759C189.37 127.759 198.63 124.25 205.233 117.033C211.082 110.639 214.017 102.259 216.375 95.5264C218.015 90.8442 219.431 86.8003 221.522 84.0653C221.694 83.8405 221.898 83.4909 221.898 83.0967V72.179C221.898 71.8461 221.715 71.5242 221.395 71.2957C208.69 62.2204 186.062 61.2403 176.924 61.2403Z" fill="#A27B5A"/>
</svg>
