<svg width="265" height="234" viewBox="0 0 265 234" fill="none" xmlns="http://www.w3.org/2000/svg">
<path d="M64.8277 154.143C46.7813 154.143 30.9211 143.579 25.9638 128.257L11.2433 82.7611L50.2335 80.113C73.5323 78.5303 96.7157 84.2615 115.698 96.2951L118.478 98.0574L115.709 115.177C112.09 137.536 90.4048 154.143 64.8277 154.143Z" fill="#601336"/>
<path d="M200.173 154.143C218.219 154.143 234.079 143.579 239.037 128.257L253.758 82.7611L214.768 80.113C191.469 78.5303 168.285 84.2615 149.304 96.2951L146.524 98.0574L149.293 115.177C152.91 137.536 174.595 154.143 200.173 154.143Z" fill="black"/>
<path d="M135.965 91.1389C134.832 90.9981 133.676 90.9191 132.5 90.9191C129.555 90.9191 126.73 91.3765 124.106 92.2111L120.748 90.0822C100.142 77.018 74.8646 70.7708 49.5685 72.4865L0 75.8544L17.6354 130.359C23.6238 148.866 43.0294 161.791 64.8272 161.791C79.2821 161.791 93.2567 157.185 104.177 148.822C115.097 140.459 122.237 128.894 124.281 116.258L124.834 112.843H124.993C124.993 109.188 128.36 106.215 132.499 106.215C133.75 106.215 134.927 106.49 135.964 106.97V91.1389H135.965V91.1389ZM107.133 114.096C105.679 123.087 100.599 131.316 92.8282 137.267C85.0572 143.218 75.1135 146.495 64.8282 146.495C50.7237 146.495 38.1672 138.132 34.2921 126.156L22.4857 89.6682L50.8976 87.7381C71.5257 86.3364 92.1387 91.2481 109.158 101.583L107.133 114.096Z" fill="#FF318F"/>
<path d="M60.3232 108.255H43.0009C43.0009 120.906 54.6573 131.199 68.9849 131.199V115.903C64.2087 115.903 60.3232 112.473 60.3232 108.255Z" fill="white"/>
<path d="M189.664 108.255H172.342C172.342 120.906 183.999 131.199 198.326 131.199V115.903C193.549 115.903 189.664 112.473 189.664 108.255Z" fill="white"/>
<path d="M215.432 72.4875C190.14 70.7713 164.858 77.0185 144.253 90.0827L140.894 92.2125C138.27 91.3775 135.445 90.92 132.5 90.92V106.216C136.639 106.216 140.006 109.189 140.006 112.844H140.165L140.718 116.259C142.763 128.895 149.903 140.459 160.822 148.823C171.742 157.185 185.717 161.792 200.172 161.792C221.97 161.792 241.376 148.866 247.364 130.359L265 75.8553L215.432 72.4875ZM230.709 126.156C226.834 138.131 214.277 146.495 200.173 146.495C189.888 146.495 179.943 143.218 172.172 137.267C164.402 131.316 159.321 123.087 157.868 114.096L155.844 101.584C172.862 91.2481 193.475 86.335 214.104 87.739L242.515 89.6682L230.709 126.156Z" fill="#BF256B"/>
</svg>
