<svg width="493" height="294" viewBox="0 0 493 294" fill="none" xmlns="http://www.w3.org/2000/svg">
<path d="M387.949 252.811C389.241 246.594 391.936 238.076 387.462 232.382C385.802 230.269 385.887 241.1 386.003 241.988C387.65 254.611 398.394 245.48 401.021 238.583C404.215 230.2 402.833 220.604 398.893 212.682C395.56 205.982 391.342 199.53 386.49 193.834C384.921 191.993 377.834 183.052 374.572 183.619C366.956 184.944 376.602 212.278 377.856 215.114C379.507 218.851 389.745 233.364 395.974 228.247C400.125 224.838 396.885 211.007 395.974 207.149C393.805 197.955 389.897 186.266 381.625 180.579C379.471 179.098 373.556 210.217 373.113 212.621C370.097 228.983 366.814 245.851 366.608 262.539C366.519 269.746 367.135 280.318 371.654 286.495C377.353 294.283 391.815 283.018 395.366 278.469C400.281 272.174 401.016 263.282 401.994 255.729C403.421 244.704 404.566 233.307 401.386 222.471C401.123 221.575 394.355 204.317 391.475 206.237C389.069 207.841 395.25 232.208 395.853 234.449C397.251 239.647 401.738 249.879 408.682 249.345C416.044 248.779 415.594 229.397 414.944 224.964C412.839 210.594 405.682 196.771 392.813 189.213C375.047 178.779 363.78 197.971 359.007 213.047C356.616 220.602 350.581 247.992 361.561 252.568C372.225 257.011 384.539 243.985 389.469 236.516C393.374 230.599 397.489 223.506 392.57 217.181C388.304 211.697 383.303 218.783 381.261 222.653C376.322 232.015 373.341 248.273 381.625 256.398C389.058 263.688 402.548 264.454 409.229 255.608C434.245 222.485 390.464 187.462 365.392 171.459C359.911 167.961 369.671 179.629 371.168 180.822C375.306 184.123 384.255 189.154 389.043 183.862C396.289 175.854 386.17 159.185 382.112 152.55C373.292 138.128 353.99 116.355 334.565 122.392C322.962 125.999 319.192 142.23 325.567 151.881C333.8 164.346 347.589 172.644 362.899 167.993C374.891 164.35 380.329 153.047 381.139 141.545C381.436 137.333 382.426 122.096 375.424 121.967C364.462 121.764 357.189 138.001 353.049 145.314C348.868 152.701 333.427 176.655 342.713 185.808C353.718 196.656 374.94 190.294 386.003 183.984C403.909 173.771 412.083 152.44 401.933 133.701C393.556 118.236 374.892 104.963 359.007 98.1326C351.008 94.6931 337.352 92.714 338.213 105.854C339.102 119.407 353.348 127.61 364.723 131.208C382.891 136.957 389.527 119.131 389.165 104.334C388.027 57.8898 336.051 63.2188 307.934 81.7163C301.338 86.0559 300.157 89.1082 305.867 94.971C314.307 103.636 329.216 104.287 338.335 96.3086C344.115 91.2512 346.318 79.0521 340.22 73.5081C330.927 65.0602 310.457 78.1361 303.192 83.7836C291.405 92.9466 270.587 110.778 277.959 128.594C283.843 142.812 308.696 135.945 317.541 129.688C338.893 114.586 334.533 83.5259 310.184 73.9338C280.245 62.1398 255.109 127.663 287.019 126.466C304.648 125.805 322.417 116.331 332.863 102.45C337.532 96.2447 344.059 87.2899 336.389 80.5003C328.011 73.0837 316.268 80.5196 308.603 85.6076C298.236 92.4896 287.98 100.638 279.054 109.32C275.305 112.966 272.185 117.43 272.913 122.94C274.887 137.884 304.624 132.835 313.285 130.6C335.237 124.938 351.087 107.624 347.82 84.3916C345.995 71.4148 328.611 60.5468 317.055 57.5782C292.214 51.1971 266.488 69.4083 261.786 94.4238C258.886 109.855 268.822 129.407 284.344 133.641C301.356 138.28 317.417 126.282 322.466 110.901C326.122 99.761 326.298 83.8973 311.947 80.1355C294.629 75.5956 274.947 97.7449 275.345 113.819C275.721 129.016 288.494 140.107 303.131 137.228C322.483 133.421 338.931 117.957 340.037 97.5246C340.925 81.1389 330.809 67.1085 315.717 61.4695C301.737 56.2462 278.452 54.1661 269.873 69.8601C260.383 87.2187 276.287 126.765 298.632 106.827C309.042 97.5384 311.158 75.5559 301.976 64.5704C288.542 48.4972 257.752 55.3687 243.364 65.908C226.277 78.4233 209.894 98.839 224.88 119.413C233.977 131.902 252.572 137.101 266.711 130.6C275.266 126.668 279.148 117.969 282.398 109.746C287.438 96.9925 288.658 86.3033 283.553 73.4473C276.434 55.5166 259.25 38.0437 238.925 36.4802C204.151 33.8053 179.071 57.8116 164.444 87.0668C154.472 107.011 156.626 135.784 182.319 140.207C208.615 144.733 236.023 118.981 249.2 98.8622C263.415 77.161 271.98 49.013 260.509 24.0768C248.534 -1.95682 214.471 25.4761 211.26 44.6276C208.194 62.9201 238.393 62.4923 249.079 62.4423C279.847 62.2986 312.448 52.3981 337.849 34.7778C348.589 27.3273 352.007 18.9137 339.551 11.6733C321.66 1.2744 298.252 3.83439 281.121 13.8014C262.657 24.5442 242.811 45.794 248.714 69.3129C253.881 89.8994 275.056 106.746 296.747 102.875C319.66 98.7862 335.5 83.0533 341.618 60.6183C342.734 56.527 340.582 38.4522 333.471 47.4852C322.05 61.9927 320.106 81.9391 327.148 98.7406C332.515 111.547 343.421 121.561 353.778 130.357C359.947 135.596 366.82 141.031 374.816 143.126C390.123 147.135 401.64 140.416 401.751 123.426C401.922 97.0026 389.007 71.0039 367.155 56.3014C362.681 53.2913 357.711 50.7603 352.198 51.8629C344.912 53.3202 342.834 63.212 340.949 69.0697C333.203 93.1499 334.08 122.142 352.076 141.423C363.642 153.815 381.025 162.5 398.163 156.988C412.846 152.266 422.734 142.076 419.261 125.797C418.228 120.953 414.042 111.522 408.135 115.522C399.951 121.063 394.844 129.367 390.867 138.261C383.56 154.605 377.548 172.776 379.558 190.915C381.445 207.946 389.447 225.19 406.493 231.47C419.514 236.267 432.159 229.934 439.63 219.005C442.449 214.882 451.915 178.763 444.555 177.843C439.835 177.253 435.197 195.754 434.583 197.907C430.75 211.365 427.828 226.164 428.382 240.225C428.725 248.937 432.01 261.098 443.035 259.985C451.293 259.152 460.445 250.543 465.653 244.907C477.35 232.247 484.133 213.661 486.811 196.874C492.611 160.532 467.362 126.666 444.251 101.598C442.329 99.5142 404.531 57.5185 398.589 63.1111C396.712 64.8777 397.005 71.2919 396.947 73.3257C396.696 82.2293 398.173 91.1628 400.595 99.7135C401.504 102.921 405.866 113.907 409.29 106.158C411.66 100.795 410.986 94.6344 410.08 89.0125C407.696 74.2111 403.421 58.9842 393.421 47.4244C378.697 30.4039 349.943 13.9377 327.148 23.9552C311.681 30.7519 288.6 46.8795 290.12 66.6376C290.923 77.0838 300.958 87.2219 311.704 86.5804C327.159 85.6577 330.075 66.2844 327.391 54.7814C325.535 46.8268 322.792 38.8672 314.866 35.2642C304.271 30.4486 290.888 29.7178 279.54 31.1297C242.387 35.7524 204.55 49.8429 179.522 78.5546C169.485 90.0692 173.348 99.4885 185.542 106.523C197.999 113.71 216.717 110.281 225.731 98.619C233.046 89.1559 234.261 76.8211 233.392 65.3C232.309 50.9294 230.151 30.6218 218.678 20.1855C205.12 7.85197 185.078 17.9471 174.537 29.4881C162.886 42.243 153.246 61.9105 151.493 79.1627C150.103 92.8397 158.028 105.784 167.605 114.853C189.142 135.247 213.302 128.066 234.851 111.63C254.604 96.566 266.829 69.3853 252.484 46.4516C242.484 30.4647 226.483 15.3892 206.153 18.0575C169.545 22.8623 138.714 47.3464 113.127 72.1097C101.547 83.3178 91.1438 97.0391 111.547 103.24C137.656 111.175 161.481 91.593 172.713 69.4345C176.62 61.7249 183.498 44.6193 172.469 38.5475C159.641 31.4849 143.761 45.7779 139.637 57.2134C133.034 75.5202 146.76 93.7596 161.404 102.875C170.758 108.698 181.454 113.66 192.655 113.941C199.516 114.113 209.768 113.839 213.936 107.253C222.106 94.342 214.662 82.1505 203.113 74.785C182.028 61.3369 147.77 48.3766 123.099 59.3415C105.608 67.1154 120.845 89.1938 129.544 96.795C147.079 112.118 173.312 121.535 194.419 107.678C210.22 97.3052 218.031 73.7605 211.625 55.5718C208.398 46.4072 198.768 40.692 190.102 47.9717C172.307 62.9194 166.187 89.4626 170.037 111.387C172.693 126.511 188.059 134.16 202.748 131.208C222.51 127.238 237.396 109.532 236.493 88.7692C235.751 71.7 217.604 61.6337 202.992 58.3687C191.92 55.8949 180.76 58.1186 170.037 61.1047C149.454 66.8367 132.545 76.7097 118.903 93.3293C110.643 103.393 105.386 112.734 110.148 125.432C112.478 131.645 115.209 136.164 121.7 138.261C156.849 149.617 167.803 91.4772 142.008 75.0282C125.75 64.6611 115.122 81.3287 108.142 93.8765C96.8406 114.192 89.9782 143.133 103.764 164.041C110.904 174.87 124.673 185.548 138.725 181.187C159.602 174.708 156.332 144.14 150.946 128.776C145.226 112.463 129.904 113.638 117.14 120.811C99.6493 130.641 87.8547 154.909 89.9621 175.046C90.9118 184.12 95.8398 197.303 103.399 203.075C111.127 208.977 110.134 186.97 109.358 184.227C106.21 173.102 98.3848 157.464 83.9428 162.278C69.0625 167.238 60.1274 180.583 61.4464 195.658C62.1149 203.297 65.5914 209.72 74.2146 208.548C77.2157 208.14 80.6337 207.481 83.3956 206.176C84.1359 205.827 88.5981 201.693 88.7461 203.987C89.0293 208.377 87.0189 213.515 86.3749 217.789C84.6156 229.465 84.0993 241.502 84.186 253.297C84.2279 258.996 86.3786 277.941 92.455 264.12C98.6067 250.128 98.9034 231.713 96.2855 216.877C96.205 216.421 96.1625 215.415 95.7382 215.601C94.3149 216.223 95.0897 218.668 95.1302 220.221C95.3121 227.191 97.5784 234.177 99.6295 240.772C99.9062 241.662 103.635 255.177 106.074 253.784C111.232 250.836 95.6524 220.9 93.4886 217.789C90.9595 214.154 86.6713 210.141 82.1188 209.156C76.9618 208.039 76.1001 217.267 75.9171 220.343C75.202 232.356 83.3366 246.315 92.9414 253.176C113.169 267.624 120.256 220.366 107.655 218.033C92.7357 215.27 63.3289 256.237 80.4771 261.749C91.0859 265.159 93.9515 243.166 94.5222 237.732C95.786 225.701 90.2536 203.3 77.1331 198.576C67.2687 195.025 70.8149 218.676 71.4786 222.775C73.608 235.927 78.834 250.742 88.4421 260.35C95.5927 267.501 95.4367 257.574 94.9478 252.142C93.3719 234.632 85.7067 206.414 66.1889 201.312C41.0114 194.732 36.0841 237.535 51.8398 249.71C58.7262 255.031 65.7821 234.881 66.5537 232.625C71.5166 218.115 76.4626 202.159 76.4035 186.659C76.382 181.039 76.0814 171.293 70.9314 167.446C60.0364 159.308 40.0581 170.485 30.9242 176.019C13.1911 186.762 0.353562 210.337 6.60371 231.409C11.1343 246.683 25.1549 257.185 41.5036 255.243C73.9951 251.383 75.5904 209.18 71.661 185.2C71.0244 181.315 67.1769 149.445 56.0959 160.271C40.8506 175.166 32.0283 202.976 35.4235 223.869C37.4187 236.148 48.13 249.343 61.4464 245.211C82.7355 238.604 91.4529 209.041 93.3062 189.395C94.8763 172.753 89.4904 157.855 74.4578 149.692C58.3894 140.966 42.9041 161.313 35.3019 172.371C22.0084 191.707 15.6425 219.141 29.1001 240.529C37.3411 253.626 55.8028 257.692 66.3105 244.542C73.4784 235.572 78.2127 224.085 80.9028 213.047C85.8206 192.867 87.9229 169.274 84.6116 148.658C81.651 130.226 69.1938 110.651 56.4607 97.1598C50.31 90.6431 44.2958 106.289 42.5372 110.354C39.287 117.865 26.5572 146.648 39.6188 152.246C52.5892 157.804 63.7478 133.577 67.6481 126.101C73.6549 114.588 77.8647 102.574 80.9636 89.9853C82.8421 82.3538 86.2796 71.7169 83.0916 63.8408C80.6073 57.7032 74.3294 60.4998 70.9314 64.5704C65.1239 71.5272 61.7613 80.1596 60.8384 89.1341C59.9446 97.8256 59.1816 110.589 64.608 118.197C73.5089 130.677 97.3091 129.535 109.844 124.885C132.455 116.497 144.289 93.4217 142.92 70.4073C142.123 57.0053 130.983 43.1869 118.356 38.4259C112.679 36.2853 105.99 38.9972 101.94 43.0468C90.9062 54.0806 82.7434 70.6354 77.1331 84.9388C71.5476 99.1787 67.9196 114.47 65.9457 129.628C64.8335 138.168 64.228 148.277 69.2289 155.894C75.6324 165.647 88.2165 156.033 93.0022 150.361C98.205 144.195 101.898 137.637 103.764 129.749C104.653 125.993 106.8 117.496 105.588 113.455C104.251 108.998 102.752 122.319 101.21 126.709C97.571 137.071 93.657 147.395 89.2933 157.475C80.5894 177.581 66.8288 195.007 62.0544 216.877C60.6991 223.086 60.768 229.36 60.7168 235.665C60.701 237.603 60.3764 240.944 60.96 237.124C61.8399 231.365 63.0782 221.925 67.9521 217.911C73.8213 213.078 82.2157 223.618 84.5508 227.822C86.2926 230.957 87.7665 243.869 90.5093 245.515C91.713 246.237 91.6676 242.901 91.7862 241.502C92.5176 232.871 91.6965 223.507 89.6581 215.114C86.9541 203.98 77.1648 172.521 61.0816 173.04C55.1134 173.232 53.7212 188.995 53.1774 192.496C51.5801 202.781 51.9499 213.315 54.0286 223.505C56.0851 233.585 60.0753 248.649 71.965 251.291C85.5051 254.3 92.4976 221.887 94.6438 214.567C101.405 191.507 106.589 168.04 114.1 145.193C120.05 127.094 114.624 151.519 113.614 156.623C110.809 170.796 103.646 194.959 119.998 204.413C137.598 214.588 149.331 186.22 153.499 174.742C157.622 163.391 158.62 152.007 158.303 140.025C158.038 130.035 157.695 119.627 150.763 111.813C146.889 107.445 134.055 95.7813 127.233 100.808C121.277 105.197 124.907 118.355 132.219 118.501C145.925 118.775 149.84 106.097 152.527 94.8494C152.559 94.7142 152.949 84.066 153.135 89.7421C153.366 96.8427 155.401 103.546 158.728 109.806C168.021 127.294 197.715 155.928 207.248 122.453C209.111 115.911 209.461 107.677 201.715 114.184C191.032 123.157 185.469 142.721 188.946 156.198C190.781 163.307 199.156 169.61 206.64 165.987C220.4 159.325 228.036 135.365 221.962 121.48C220.989 119.258 213.356 111.041 211.625 117.467C209.606 124.967 221.401 136.109 226.947 139.173C232.345 142.157 239.318 140.168 240.567 133.641C243.177 119.997 234.289 102.407 223.968 94.059C215.569 87.2659 210.978 87.9288 208.585 98.7406C205.551 112.454 203.711 126.424 205.545 140.45C206.95 151.188 209.333 165.568 217.584 173.526C246.01 200.945 281.885 146.434 283.249 121.723C285.154 87.2186 236.091 126.541 226.826 135.586C221.579 140.708 227.937 140.53 232.784 140.937C244.597 141.929 253.718 145.961 259.78 133.458C266.011 120.606 265.921 103.253 253.213 94.1198C238.146 83.2902 232.793 100.223 235.095 113.455C237.916 129.68 245.072 148.971 257.895 160.15C265.096 166.428 268.294 155.137 269.082 150.118C272.321 129.495 271.872 110.373 256.861 94.8494C252.771 90.6196 248.072 91.209 254.429 93.0253" stroke="black" stroke-width="9" stroke-linecap="round" stroke-linejoin="round"/>
</svg>
