<svg width="394" height="312" viewBox="0 0 394 312" fill="none" xmlns="http://www.w3.org/2000/svg">
<path d="M68.0461 299.862C71.3301 303.533 74.5138 307.091 78.0588 310.657C81.8458 307.917 83.2456 296.956 84.0211 292.691C84.7258 288.815 86.3452 284.465 87.9565 280.84C89.9378 276.382 92.801 268.782 93.0228 264.012C93.3508 256.96 95.4655 250.136 95.4655 243.023V226.648C95.4655 221.245 95.6467 216.106 96.2345 210.816C96.5238 208.212 96.7417 205.664 97.1392 203.081C97.4063 201.344 97.4273 197.581 98.3153 196.16C100.784 192.21 100.402 185.925 102.613 181.504C105.268 176.192 107.472 169.825 111.569 165.4C113.33 163.498 113.885 160.902 115.821 159.067C117.506 157.471 121.904 156.55 124.104 156.09L124.144 156.082C130.361 154.781 136.07 154.634 142.419 154.634C155.175 154.634 167.19 160.684 177.703 167.255C182.969 170.546 192.083 170.104 198.058 170.104C203.496 170.104 208.662 169.842 213.981 169.335C225.599 168.229 238.52 161.667 248.36 155.629C256.482 150.645 262.55 148.12 272.108 148.12C278.781 148.12 287.935 153.504 293.73 156.624C305.88 163.167 313.913 171.894 318.745 184.942C323.764 198.492 328.604 211.755 329.149 226.467C329.427 233.961 329.77 242.589 331.185 249.944C332.585 257.223 331.327 264.985 332.451 272.29C333.35 278.131 332.667 284.888 334.442 290.565C335.052 292.518 335.343 294.666 335.708 296.672C335.816 297.263 339.221 301.919 339.372 301.919C342.133 301.919 345.04 295.921 346.067 293.867C348.259 289.484 348.691 285.502 348.691 280.659C348.691 274.303 349.445 266.427 347.695 260.303C345.894 254 344.741 245.509 344.619 238.952C344.32 222.757 344.019 206.91 342.132 190.867C340.436 176.457 335.909 163.982 329.601 151.015C324.067 139.64 319.536 127.834 312.05 117.541C308.641 112.853 304.491 109.826 300.244 106.233C295.298 102.048 288.804 97.4234 283.1 94.3812C280.112 92.7877 278.023 91.2112 274.777 90.1291C272.196 89.2687 269.488 89.4735 266.815 88.8626C261.323 87.6072 254.513 88.6816 248.902 88.6816C234.508 88.6816 218.434 83.3248 204.12 86.4199C186.6 90.208 167.977 90.3101 150.064 90.3101C138.434 90.3101 128.393 96.5608 117.857 100.443C108.955 103.722 102.944 109.377 94.6513 113.742C89.2541 116.582 85.402 122.154 80.8094 126.091C76.1633 130.073 75.8272 135.43 73.0742 140.385C71.8994 142.5 72.0883 143.912 69.6816 144.863C65.4789 146.525 62.5765 147.014 60.4537 151.377C58.731 154.918 56.6792 158.953 55.7493 162.776C54.8808 166.347 55.7677 170.171 54.935 173.814C53.4979 180.101 52.3114 187.277 52.3114 193.717C52.3114 199.428 54.5471 204.593 54.7541 210.183C55.514 230.699 59.3158 251.152 54.7993 271.476C54.0474 274.859 56.7524 277.665 57.8301 280.659C58.9037 283.641 56.891 285.951 60.4537 287.534C65.0807 289.591 64.7398 296.167 67.7817 299.567L68.0461 299.862Z" fill="#00FF38"/>
<path d="M78.3667 310.966C74.6019 307.201 71.2546 303.448 67.7817 299.567C64.7398 296.167 65.0807 289.591 60.4537 287.534C56.891 285.951 58.9037 283.641 57.8301 280.659C56.7524 277.665 54.0474 274.859 54.7993 271.476C59.3158 251.152 55.514 230.699 54.7541 210.183C54.5471 204.593 52.3114 199.428 52.3114 193.717C52.3114 187.277 53.4979 180.101 54.935 173.814C55.7677 170.171 54.8808 166.347 55.7493 162.776C56.6792 158.953 58.731 154.918 60.4537 151.377C62.5765 147.014 65.4789 146.525 69.6816 144.863C72.0883 143.912 71.8994 142.5 73.0742 140.385C75.8272 135.43 76.1633 130.073 80.8094 126.091C85.402 122.154 89.2541 116.582 94.6513 113.742C102.944 109.377 108.955 103.722 117.857 100.443C128.393 96.5608 138.434 90.3101 150.064 90.3101C167.977 90.3101 186.6 90.208 204.12 86.4199C218.434 83.3248 234.508 88.6816 248.902 88.6816C254.513 88.6816 261.323 87.6072 266.815 88.8626C269.488 89.4735 272.196 89.2687 274.777 90.1291C278.023 91.2112 280.112 92.7877 283.1 94.3812C288.804 97.4234 295.298 102.048 300.244 106.233C304.491 109.826 308.641 112.853 312.05 117.541C319.536 127.834 324.067 139.64 329.601 151.015C335.909 163.982 340.436 176.457 342.132 190.867C344.019 206.91 344.32 222.757 344.619 238.952C344.741 245.509 345.894 254 347.695 260.303C349.445 266.427 348.691 274.303 348.691 280.659C348.691 285.502 348.259 289.484 346.067 293.867C345.04 295.921 342.133 301.919 339.372 301.919C339.221 301.919 335.816 297.263 335.708 296.672C335.343 294.666 335.052 292.518 334.442 290.565C332.667 284.888 333.35 278.131 332.451 272.29C331.327 264.985 332.585 257.223 331.185 249.944C329.77 242.589 329.427 233.961 329.149 226.467C328.604 211.755 323.764 198.492 318.745 184.942C313.913 171.894 305.88 163.167 293.73 156.624C287.935 153.504 278.781 148.12 272.108 148.12C262.55 148.12 256.482 150.645 248.36 155.629C238.52 161.667 225.599 168.229 213.981 169.335C208.662 169.842 203.496 170.104 198.058 170.104C192.083 170.104 182.969 170.546 177.703 167.255C167.19 160.684 155.175 154.634 142.419 154.634C136.07 154.634 130.361 154.781 124.144 156.082C121.959 156.539 117.517 157.461 115.821 159.067C113.885 160.902 113.33 163.498 111.569 165.4C107.472 169.825 105.268 176.192 102.613 181.504C100.402 185.925 100.784 192.21 98.3153 196.16C97.4273 197.581 97.4063 201.344 97.1392 203.081C96.7417 205.664 96.5238 208.212 96.2345 210.816C95.6467 216.106 95.4655 221.245 95.4655 226.648C95.4655 232.106 95.4655 237.565 95.4655 243.023C95.4655 250.136 93.3508 256.96 93.0228 264.012C92.801 268.782 89.9378 276.382 87.9565 280.84C86.3452 284.465 84.7258 288.815 84.0211 292.691C83.2119 297.141 81.7232 308.881 77.5525 310.966" stroke="black" stroke-linecap="round" stroke-linejoin="round"/>
<path d="M140.255 115.734C141.993 106.609 138.167 98.6584 134.433 90.4905C130.877 82.7119 125.158 77.9371 118.676 72.82C106.23 62.9944 91.7094 54.3411 76.1692 50.3451C69.9606 48.7486 63.849 49.0422 57.4808 49.0422C54.5506 49.0422 49.4112 47.9654 46.8134 49.4086C43.0668 51.4901 38.7006 51.8203 34.5581 51.9737C32.889 52.0355 32.1988 53.2512 33.2552 50.8744C33.6428 50.0023 34.9091 47.7463 34.5581 46.8436C31.8433 39.8627 25.9424 38.6197 18.9234 39.5555C8.20139 40.9851 0.71021 48.1531 1.00861 58.8953C1.11726 62.8068 1.74148 66.7042 1.74148 70.7028C1.74148 74.7748 3.38872 75.7591 5.36515 78.7237C9.28729 84.6069 19.0819 79.7674 22.262 75.7922C23.7521 73.9296 25.0366 71.7548 26.4964 70.1328C29.2232 67.103 29.9516 68.6645 33.2552 70.1328C35.1982 70.9963 38.8261 70.2956 40.9504 70.2956C44.9057 70.2956 48.8135 71.0285 52.6764 71.0285C62.6819 71.0285 70.7638 75.9596 79.9964 78.9273C83.9013 80.1824 88.0827 81.1505 91.1525 84.2203C93.8984 86.9662 96.1764 89.9771 98.8477 92.6484C101.204 95.0052 103.856 97.7929 105.81 100.506C107.854 103.345 111.316 105.027 113.302 107.509C114.533 109.048 115.571 110.504 116.111 112.395C116.808 114.835 116.118 117.915 116.844 120.457C117.343 122.204 122.5 118.847 124.132 118.666C125.742 118.487 130.84 117.989 132.031 117.037C133.432 115.916 139.522 115.066 139.522 115.734" stroke="black" stroke-linecap="round" stroke-linejoin="round"/>
<path d="M255.19 113.32C261.159 101.144 267.988 88.9952 275.725 77.7774C280.397 71.0023 284.591 63.9687 289.27 57.243C293.114 51.7173 296.696 48.2755 301.461 43.6437C309.504 35.8241 318.002 34.3246 328.822 34.3246C333.21 34.3246 337.599 34.3246 341.988 34.3246C345.772 34.3246 341.337 30.6874 341.067 28.5273C340.039 20.3039 340.342 12.8626 344.913 6.25914C350.888 -2.3709 364.162 1.37723 372.275 5.12135C384.489 10.759 388.919 21.4615 391.942 33.8912C394.617 44.888 388.853 46.1544 379.806 49.1701C377.204 50.0373 374.673 51.2356 372.22 50.1453C369.666 49.01 364.695 47.0029 361.98 47.0029C359.28 47.0029 359.651 45.052 356.616 46.5694C353.172 48.2918 349.664 48.1157 346.105 49.1701C337.087 51.8422 327.661 57.4289 321.02 64.0697C313.78 71.31 304.935 77.2287 297.614 84.5499C294.751 87.413 291.503 90.1462 288.945 93.273C286.882 95.794 287.794 98.8163 286.615 101.617C284.894 105.704 284.215 110.813 282.01 114.783C279.048 120.114 271.327 115.443 266.677 115.27C262.507 115.116 257.304 113.32 253.24 113.32" stroke="black" stroke-linecap="round" stroke-linejoin="round"/>
</svg>
