<svg width="617" height="429" viewBox="0 0 617 429" fill="none" xmlns="http://www.w3.org/2000/svg">
<path d="M439.269 0.374115C433.533 1.20511 421 6.08722 415.698 9.56699C414.107 10.6057 411.6 11.9041 410.154 12.5274C406.154 14.1375 399.019 16.1111 397.188 16.1111C395.26 16.1111 392.994 18.3963 392.512 20.8373C391.5 25.6675 395.79 36.9897 403.213 49.0911C405.286 52.5189 407.214 55.6352 407.407 55.9987C407.6 56.3623 406.057 55.1677 403.936 53.3499C388.415 39.8463 366.531 28.524 345.514 23.1745C325.317 18.0327 303.77 16.8901 285.26 20.0063C282.754 20.4218 277.162 21.149 272.824 21.5645C259.616 22.8629 250.168 25.5636 239.13 31.1728C220.379 40.6773 201.483 58.232 185.624 80.8246C184.226 82.8502 191.264 62.8025 197.193 48.0523C202.785 34.0813 204.231 29.6147 204.857 23.8497C205.339 19.6947 205.291 19.1754 204.375 17.0979C203.7 15.6436 202.592 14.2413 201.29 13.3584C199.459 12.06 198.928 11.9041 196.663 12.2158C193.144 12.6832 189.625 14.0336 183.6 17.3056C178.635 19.9544 177.092 21.3047 172.899 26.4465C171.308 28.3682 170.97 28.576 168.85 28.576C166.97 28.576 166.15 28.2124 164.222 26.7062C159.932 23.3303 153.087 21.2528 143.784 20.5776C140.361 20.318 139.638 20.4218 137.759 21.4086C133.517 23.7458 131.01 29.5108 131.781 35.172C132.745 42.547 141.759 70.4891 146.869 82.0711C147.688 83.9408 148.363 85.6548 148.363 85.9664C148.363 86.278 146.098 86.5377 142.82 86.5896C111.584 87.2648 80.0594 114.428 52.3426 164.651C46.8957 174.467 36.1946 197.216 31.8081 208.278C14.1175 253.048 2.83801 300.259 0.331448 339.679C-0.488005 352.559 0.331448 371.309 1.48832 366.946C1.63293 366.375 1.87395 364.609 2.06676 363.051C2.25957 361.492 3.12723 356.506 4.04309 351.988C11.1289 317.294 31.6153 257.93 51.2339 215.29C57.2593 202.253 62.9955 190.723 63.0437 191.71C63.0437 191.866 62.176 194.307 61.0674 197.164C51.7642 221.73 43.3768 255.229 38.5083 287.222C35.4715 307.426 34.1218 323.942 34.1218 342.068C34.1218 366.738 36.532 382.735 42.3646 396.394C43.2322 398.316 44.0999 399.926 44.3409 399.926C44.5819 399.926 44.5819 398.731 44.3891 397.225C44.1963 395.719 44.0035 388.759 44.0517 381.748C44.0999 368.036 44.7265 361.077 47.6669 342.951C51.475 319.06 58.2716 289.3 65.9359 262.812C67.3338 258.086 68.7799 252.996 69.1655 251.49C70.3224 247.283 70.4188 248.633 69.3583 254.294C63.0919 287.586 58.9946 344.145 60.1515 381.592C60.8746 403.25 62.7063 415.663 66.1287 420.96L67.0928 422.467L67.4302 421.22C67.623 420.493 67.7676 418.519 67.8158 416.805C68.105 398.783 80.4932 333.862 93.4117 282.288C95.0988 275.692 96.8341 268.733 97.3161 266.759C98.473 262.241 98.9068 261.721 98.3766 265.409C97.7982 269.616 97.991 294.13 98.6658 302.804C101.269 336.199 108.21 376.814 116.838 408.911C119.538 418.987 122.671 428.024 123.587 428.335C123.972 428.491 124.213 421.687 124.406 405.016C125.178 344.976 132.167 248.945 138.048 218.146C139.349 211.239 140.217 209.213 143.736 204.539C145.664 201.942 152.991 195.346 153.328 195.865C153.425 195.969 153.858 199.76 154.292 204.227C157.377 235.182 167.066 262.708 184.612 290.443C190.011 298.96 200.615 313.139 201.146 312.568C201.29 312.412 200.423 310.282 199.218 307.738C196.422 301.817 192.758 291.793 189.288 280.471C186.636 271.849 181.623 253.567 181.623 252.58C181.623 252.373 182.732 255.073 184.082 258.657C188.516 270.551 195.361 282.808 203.363 293.195C207.942 299.116 219.607 311.737 220.186 311.373C220.379 311.217 219.174 308.88 217.535 306.179C212.136 297.35 207.508 288.105 203.556 278.133C201.338 272.472 197 260.111 197.193 259.904C197.241 259.8 199.266 262.968 201.724 266.863C211.702 283.016 225.777 299.48 241.877 313.918C250.12 321.293 260.387 328.201 261.448 327.058C261.641 326.902 260.002 324.773 257.784 322.384C234.84 297.194 209.051 231.078 201.146 177.116C199.941 169.17 199.603 164.755 200.519 169.325C204.327 188.646 213.004 212.589 221.295 226.404C223.415 229.832 224.91 231.286 224.331 229.157C222.451 222.405 220.812 201.007 220.427 177.895L220.186 163.353L221.584 169.118C225.729 185.634 232.574 201.319 242.986 218.146C246.071 223.132 254.844 235.805 255.23 235.805C255.374 235.805 254.844 234.922 254.121 233.831C247.999 225.21 240.094 209.784 235.948 198.41C232.526 188.958 229.826 178.778 228.139 168.806C227.368 164.132 226.018 151.563 226.356 151.875C226.452 151.978 227.465 155.095 228.621 158.782C236.093 182.465 248.24 208.642 256.001 217.731C258.122 220.276 259.664 221.055 258.941 219.289C255.326 210.408 252.819 192.282 252.241 170.624L251.952 160.756L253.832 166.209C258.025 178.31 262.749 188.438 269.883 200.695C274.077 207.863 277.258 212.745 280.102 216.328C281.211 217.731 282.609 219.6 283.236 220.483C283.862 221.314 284.2 221.678 284.007 221.262C283.814 220.847 283.043 219.6 282.271 218.562L280.825 216.588L282.416 216.952C283.669 217.211 283.91 217.107 283.669 216.536C280.199 207.707 277.789 198.618 276.487 189.321C275.619 183.037 275.619 157.847 276.487 151.147C277.258 145.382 279.042 134.424 279.235 134.631C279.283 134.735 279.717 136.761 280.151 139.202C281.982 149.122 287.718 165.015 294.611 179.453C301.167 193.216 307.289 203.136 313.459 209.888C316.303 213.056 320.545 216.588 321.461 216.588C321.653 216.588 320.979 214.77 319.966 212.537C315.05 201.89 312.398 186.984 311.242 163.664C310.663 151.875 311.193 133.697 312.447 124.14L313.025 119.725L314.809 121.751C323.051 130.84 330.571 169.585 332.162 210.875L332.258 213.732L334.234 209.577C337.705 202.409 339.73 193.684 341.272 179.453C342.092 171.974 342.092 134.943 341.272 124.659C340.935 120.505 340.356 112.87 339.922 107.676C339.489 102.482 339.248 97.808 339.344 97.2887C339.585 95.9902 342.477 100.249 345.225 105.962C351.106 118.271 354.865 134.268 359.493 167.352C360.312 173.013 360.939 178.31 360.939 179.141C360.939 182.258 349.708 204.383 344.453 211.55C343.634 212.641 343.056 213.628 343.2 213.732C343.489 214.095 351.925 201.578 356.504 193.995C358.914 189.996 361.228 186.257 361.614 185.686C362.289 184.699 362.337 184.699 362.385 186.309C362.385 187.244 362.578 188.023 362.771 188.023C363.301 188.023 365.663 181.323 366.482 177.428C366.868 175.61 368.169 171.87 369.375 169.118C372.17 162.574 376.027 150.161 377.28 143.617C378.822 135.41 379.256 130.892 379.304 122.426L379.353 114.532L381.184 120.505C382.197 123.777 383.835 129.542 384.848 133.333L386.631 140.189L385.282 145.798C381.136 163.093 374.677 178.674 365.47 193.58C362.771 197.943 360.602 201.526 360.698 201.526C360.939 201.526 371.11 186.62 373.327 183.089C378.244 175.142 384.269 163.301 387.692 154.887L389.234 151.095L389.813 153.588C392.464 164.859 394.681 179.817 394.681 186.413C394.681 189.009 394.874 191.139 395.115 191.139C395.645 191.139 397.14 188.906 397.911 186.932C400.466 180.492 399.887 158.055 396.561 134.112C395.838 128.659 395.742 126.529 396.079 124.244C396.368 122.582 396.706 119.31 396.898 116.869L397.284 112.454L398.393 116.35C400.176 122.374 402.249 134.372 403.31 144.655C405.045 161.794 405.43 174.052 405.141 204.643C404.9 233.312 404.274 248.581 401.96 282.288C401.478 289.404 401.237 295.428 401.43 295.688C401.863 296.208 403.936 291.949 405.479 287.274C408.949 276.835 413.962 250.191 416.662 228.274C417.096 224.534 417.578 221.159 417.77 220.743C418.59 218.614 418.011 252.321 416.999 266.032C416.662 270.758 417.24 271.278 418.686 267.59C422.639 257.722 427.025 232.065 430.159 200.384C430.641 195.605 431.171 191.866 431.364 192.074C431.846 192.645 433.629 205.785 434.256 213.472C434.931 221.938 434.545 240.219 433.485 246.971C432.28 255.125 432.617 254.918 436.039 245.673C443.415 225.573 448.428 205.162 450.597 186.776C451.079 182.465 452.284 179.921 453.103 181.479C453.344 181.894 455.562 187.399 458.068 193.736C464.383 209.577 465.781 214.251 466.697 222.924C469.782 252.165 487.376 312.048 502.945 346.379C510.079 362.168 515.912 372.036 522.323 379.099C525.504 382.631 526.42 383.41 526.758 382.787C527.77 381.073 527.143 361.337 525.553 342.276C523.576 319.579 517.165 265.565 515.382 257.099C515.044 255.385 518.274 261.046 520.106 265.409C526.179 279.536 534.133 313.814 541.942 359.155C542.617 363.154 543.291 366.738 543.436 367.154C543.966 368.867 544.641 366.53 545.605 359.882C546.907 350.897 547.389 325.396 546.569 310.231C545.461 290.391 543.05 268.162 540.206 251.801C539.435 247.335 538.808 243.491 538.857 243.232C538.857 243.024 540.978 249.568 543.581 257.878C552.354 285.82 556.981 298.389 564.356 314.489C573.9 335.368 583.493 348.612 592.748 353.65L594.869 354.844L594.579 353.598C594.435 352.975 593.856 349.703 593.278 346.431C592.7 343.159 590.868 333.083 589.181 324.098C576.166 254.762 562.332 192.905 555.921 174.986C555.005 172.39 554.233 170.104 554.233 169.897C554.282 169.066 557.656 175.558 561.271 183.348C570.43 203.188 580.793 230.196 606.052 300.207C615.403 326.019 615.596 326.539 616.174 326.643C617.38 326.798 616.801 311.841 614.921 296.052C610.101 255.073 598.58 209.992 583.541 173.221C561.994 120.66 532.156 82.5905 497.498 63.5815C489.738 59.3227 481.35 57.6607 472.77 58.6994C463.419 59.842 454.983 63.7893 448.572 70.0217C446.5 72.0472 446.5 72.0472 447.464 69.1388C449.392 63.218 453.152 40.5215 455.369 21.3047C457.152 5.9314 457.201 4.52908 455.562 6.29495C455.176 6.71045 454.357 6.13913 452.428 4.00974C449.102 0.270264 446.017 -0.612701 439.269 0.374115ZM255.663 123.101C255.278 125.231 254.989 126.373 254.94 125.646C254.892 124.088 255.953 117.96 256.194 118.687C256.242 118.998 256.049 120.972 255.663 123.101ZM508.441 208.798C510.465 219.756 512.49 233.416 512.2 234.299C512.104 234.61 511.526 231.494 510.947 227.391C510.32 223.34 508.874 214.77 507.717 208.382C504.922 193.372 504.97 193.632 505.838 196.333C506.223 197.631 507.38 203.24 508.441 208.798ZM512.634 237.207C512.49 237.726 512.393 237.415 512.393 236.584C512.393 235.701 512.49 235.337 512.634 235.649C512.731 236.013 512.731 236.74 512.634 237.207Z" fill="black"/>
</svg>
